<?xml version="1.0" encoding="UTF-8" standalone="no"?>
<!DOCTYPE svg PUBLIC "-//W3C//DTD SVG 1.1//EN" "http://www.w3.org/Graphics/SVG/1.1/DTD/svg11.dtd">
<svg width="100%" height="100%" viewBox="0 0 1440 320" version="1.1" xmlns="http://www.w3.org/2000/svg" xmlns:xlink="http://www.w3.org/1999/xlink" xml:space="preserve" xmlns:serif="http://www.serif.com/" style="fill-rule:evenodd;clip-rule:evenodd;stroke-linejoin:round;stroke-miterlimit:2;">
    <g transform="matrix(-1,0,0,-1,1440,320)">
        <path d="M0,128L40,122.7C80,117 160,107 240,112C320,117 400,139 480,165.3C560,192 640,224 720,213.3C800,203 880,149 960,106.7C1040,64 1120,32 1200,32C1280,32 1360,64 1400,80L1440,96L1440,320L0,320L0,128Z" style="fill:url(#_Linear1);fill-rule:nonzero;"/>
    </g>
    <defs>
        <linearGradient id="_Linear1" x1="0" y1="0" x2="1" y2="0" gradientUnits="userSpaceOnUse" gradientTransform="matrix(-1440,7.11697,-7.11697,-1440,1440,225.766)"><stop offset="0" style="stop-color:rgb(153,38,240);stop-opacity:1"/><stop offset="1" style="stop-color:rgb(209,34,227);stop-opacity:1"/></linearGradient>
    </defs>
</svg>
