<?xml version="1.0" encoding="UTF-8" standalone="no"?>
<!DOCTYPE svg PUBLIC "-//W3C//DTD SVG 1.1//EN" "http://www.w3.org/Graphics/SVG/1.1/DTD/svg11.dtd">
<svg width="100%" height="100%" viewBox="0 0 16 16" version="1.1" xmlns="http://www.w3.org/2000/svg" xmlns:xlink="http://www.w3.org/1999/xlink" xml:space="preserve" xmlns:serif="http://www.serif.com/" style="fill-rule:evenodd;clip-rule:evenodd;stroke-linejoin:round;stroke-miterlimit:2;">
    <path d="M3.654,1.328C3.526,1.163 3.328,1.066 3.119,1.066C2.939,1.066 2.766,1.138 2.639,1.265L1.605,2.3C1.122,2.784 0.944,3.469 1.155,4.07C2.031,6.557 3.455,8.816 5.323,10.678C7.185,12.546 9.444,13.97 11.931,14.846C12.532,15.057 13.217,14.879 13.701,14.396L14.735,13.362C14.862,13.235 14.934,13.062 14.934,12.882C14.934,12.673 14.837,12.475 14.672,12.347L12.365,10.553C12.201,10.426 11.987,10.381 11.785,10.431L9.595,10.978C9.001,11.126 8.371,10.952 7.938,10.519L5.482,8.062C5.049,7.629 4.874,6.999 5.022,6.405L5.57,4.215C5.62,4.013 5.575,3.799 5.448,3.635L3.654,1.328ZM1.884,0.511C2.211,0.184 2.655,-0 3.118,-0C3.656,-0 4.166,0.249 4.496,0.674L6.29,2.98C6.619,3.403 6.735,3.954 6.605,4.474L6.058,6.664C6.001,6.894 6.068,7.139 6.236,7.307L8.693,9.764C8.861,9.932 9.106,10 9.337,9.942L11.526,9.395C12.046,9.265 12.597,9.381 13.02,9.71L15.326,11.504C16.155,12.149 16.231,13.374 15.489,14.115L14.455,15.149C13.715,15.889 12.609,16.214 11.578,15.851C8.939,14.923 6.543,13.412 4.568,11.431C2.587,9.456 1.077,7.06 0.148,4.422C-0.214,3.392 0.111,2.285 0.851,1.545L1.885,0.511L1.884,0.511ZM11,0.5C11,0.226 11.226,0 11.5,0L15.5,0C15.774,-0 16,0.226 16,0.5L16,4.5C16,4.774 15.774,5 15.5,5C15.226,5 15,4.774 15,4.5L15,1.707L10.854,5.854C10.76,5.948 10.633,6.001 10.5,6.001C10.225,6.001 9.999,5.775 9.999,5.5C9.999,5.367 10.052,5.24 10.146,5.146L14.293,1L11.5,1C11.226,1 11,0.774 11,0.5Z" style="fill:rgb(153,38,240);fill-rule:nonzero;"/>
</svg>
